<?xml version="1.0" encoding="UTF-8"?>
<svg id="_图层_1" data-name="图层 1" xmlns="http://www.w3.org/2000/svg" xmlns:xlink="http://www.w3.org/1999/xlink" viewBox="0 0 2340 1080">
  <defs>
    <style>
      .cls-1 {
        fill: #fff8f7;
      }

      .cls-1, .cls-2, .cls-3, .cls-4, .cls-5, .cls-6, .cls-7, .cls-8, .cls-9, .cls-10, .cls-11, .cls-12, .cls-13, .cls-14, .cls-15, .cls-16, .cls-17, .cls-18, .cls-19, .cls-20, .cls-21, .cls-22, .cls-23, .cls-24, .cls-25, .cls-26, .cls-27 {
        stroke-width: 0px;
      }

      .cls-2 {
        fill: #13772c;
      }

      .cls-3 {
        fill: #241916;
      }

      .cls-4 {
        fill: #e8e5df;
      }

      .cls-5 {
        fill: #cae2e1;
      }

      .cls-6 {
        fill: #fffeff;
      }

      .cls-7 {
        fill: #f3dfd8;
      }

      .cls-8 {
        fill: none;
      }

      .cls-9 {
        fill: #251917;
      }

      .cls-28 {
        clip-path: url(#clippath-1);
      }

      .cls-10 {
        fill: #58a939;
      }

      .cls-11 {
        fill: #fff;
      }

      .cls-12 {
        fill: #86c1be;
      }

      .cls-13 {
        fill: #e4fffe;
      }

      .cls-14 {
        fill: #591000;
      }

      .cls-29 {
        clip-path: url(#clippath);
      }

      .cls-15 {
        fill: #e18122;
      }

      .cls-16 {
        fill: #241917;
      }

      .cls-17 {
        fill: #1f7112;
      }

      .cls-18 {
        fill: #fee9e4;
      }

      .cls-19 {
        fill: #332514;
      }

      .cls-20 {
        fill: #ebebeb;
      }

      .cls-21 {
        fill: #232828;
      }

      .cls-22 {
        fill: #6a4e30;
      }

      .cls-23 {
        fill: #3d4343;
      }

      .cls-24 {
        fill: #331c0f;
      }

      .cls-25 {
        fill: #82d85a;
      }

      .cls-26 {
        fill: #cecece;
      }

      .cls-27 {
        fill: #a63a16;
      }
    </style>
    <clipPath id="clippath">
      <rect class="cls-8" x="1635.31" y="691.57" width="185.39" height="185.39"/>
    </clipPath>
    <clipPath id="clippath-1">
      <rect class="cls-8" x="1635.31" y="691.57" width="185.39" height="185.39"/>
    </clipPath>
  </defs>
  <rect class="cls-1" y="116.8" width="2340" height="963.2"/>
  <g>
    <rect class="cls-18" width="2340" height="116.8"/>
    <g>
      <path class="cls-3" d="m56.06,70.97l19.15-24.86h-18.77v-3.74h24.02v3.61l-19.24,24.86h19.15v3.78h-24.32v-3.65Z"/>
      <path class="cls-3" d="m87.71,73.55c-1.39-1.11-2.08-2.62-2.08-4.56s.71-3.49,2.12-4.58c1.41-1.09,3.42-1.88,6.03-2.35l1.81-.34c1.79-.28,3.09-.62,3.91-1.03s1.22-1.07,1.22-2c0-1.09-.48-1.96-1.43-2.6-.95-.64-2.17-.97-3.65-.97-1.82,0-3.19.43-4.12,1.28-.92.85-1.58,1.94-1.97,3.25l-3.7-.88c.42-1.93,1.47-3.58,3.15-4.96,1.68-1.37,3.86-2.06,6.55-2.06,1.51,0,2.87.21,4.07.63,1.2.42,2.2,1.01,2.98,1.76,1.34,1.29,2.02,3.12,2.02,5.5v9.03c0,3.05.13,5.03.38,5.92h-3.74c-.2-1.09-.34-2.07-.42-2.94-.78,1.06-1.83,1.92-3.15,2.56-1.32.64-2.79.97-4.41.97-2.32,0-4.18-.55-5.56-1.66Zm3.07-2.46c.8.53,1.85.8,3.17.8,2.04,0,3.68-.57,4.91-1.7,1.23-1.13,1.85-2.81,1.85-5.02v-2.27c-.36.42-.89.78-1.57,1.09-.69.31-1.74.6-3.17.88l-1.64.29c-1.62.36-2.82.81-3.59,1.32-.77.52-1.15,1.3-1.15,2.33,0,.98.4,1.74,1.2,2.27Z"/>
      <path class="cls-3" d="m115.7,74.62h-3.99v-32.26h3.99v32.26Z"/>
      <path class="cls-3" d="m122.93,42.66c.48-.48,1.11-.71,1.89-.71s1.41.24,1.89.71c.48.48.71,1.09.71,1.85s-.24,1.41-.71,1.87-1.11.69-1.89.69-1.41-.23-1.89-.69c-.48-.46-.71-1.08-.71-1.87s.24-1.37.71-1.85Zm3.86,31.96h-3.99v-22.13h3.99v22.13Z"/>
      <path class="cls-3" d="m137.21,73.7c-.98-1.04-1.47-2.52-1.47-4.45v-13.44h-3.7v-3.32h3.7v-8.11h3.95v8.11h5.63v3.32h-5.63v12.85c0,1.18.24,2.01.71,2.5.48.49,1.23.73,2.27.73,1.15,0,2.17-.22,3.07-.67v3.4c-1.06.42-2.35.63-3.86.63-2.13,0-3.68-.52-4.66-1.55Z"/>
      <path class="cls-3" d="m151.32,42.37h3.99v13.78c.84-1.29,1.93-2.33,3.28-3.13,1.34-.8,2.83-1.2,4.45-1.2,2.58,0,4.51.78,5.8,2.35,1.29,1.57,1.93,3.72,1.93,6.47v13.99h-3.95v-13.15c0-2.07-.36-3.61-1.09-4.62-.73-1.01-1.93-1.51-3.61-1.51-1.09,0-2.14.3-3.15.9-1.01.6-1.81,1.42-2.39,2.46-.42.76-.73,1.65-.95,2.67-.21,1.02-.31,2.36-.31,4.01v9.24h-3.99v-32.26Z"/>
      <path class="cls-3" d="m182.4,70.84h16.42v3.78h-20.62v-32.26h4.2v28.48Z"/>
      <path class="cls-3" d="m205.43,73.55c-1.39-1.11-2.08-2.62-2.08-4.56s.71-3.49,2.12-4.58c1.41-1.09,3.42-1.88,6.03-2.35l1.81-.34c1.79-.28,3.09-.62,3.91-1.03s1.22-1.07,1.22-2c0-1.09-.48-1.96-1.43-2.6-.95-.64-2.17-.97-3.65-.97-1.82,0-3.19.43-4.12,1.28-.92.85-1.58,1.94-1.97,3.25l-3.7-.88c.42-1.93,1.47-3.58,3.15-4.96,1.68-1.37,3.86-2.06,6.55-2.06,1.51,0,2.87.21,4.07.63,1.2.42,2.2,1.01,2.98,1.76,1.34,1.29,2.02,3.12,2.02,5.5v9.03c0,3.05.13,5.03.38,5.92h-3.74c-.2-1.09-.34-2.07-.42-2.94-.78,1.06-1.83,1.92-3.15,2.56-1.32.64-2.79.97-4.41.97-2.32,0-4.18-.55-5.56-1.66Zm3.07-2.46c.8.53,1.85.8,3.17.8,2.04,0,3.68-.57,4.91-1.7,1.23-1.13,1.85-2.81,1.85-5.02v-2.27c-.36.42-.89.78-1.57,1.09-.69.31-1.74.6-3.17.88l-1.64.29c-1.62.36-2.82.81-3.59,1.32-.77.52-1.15,1.3-1.15,2.33,0,.98.4,1.74,1.2,2.27Z"/>
      <path class="cls-3" d="m231.12,72.94c-1.26-1.54-1.89-3.68-1.89-6.43v-14.03h3.95v13.4c0,1.96.36,3.42,1.09,4.39.73.97,1.9,1.45,3.53,1.45,1.06,0,2.08-.3,3.04-.9.97-.6,1.74-1.42,2.33-2.46.42-.76.73-1.63.94-2.62.21-.99.32-2.33.32-4.01v-9.24h3.95v22.13h-3.78v-3.91c-.84,1.34-1.94,2.44-3.3,3.28-1.36.84-2.85,1.26-4.47,1.26-2.55,0-4.45-.77-5.71-2.31Z"/>
      <path class="cls-3" d="m255.52,52.49h3.78v3.95c.84-1.4,1.95-2.52,3.32-3.36,1.37-.84,2.91-1.26,4.62-1.26,2.58,0,4.51.78,5.8,2.35,1.29,1.57,1.93,3.72,1.93,6.47v13.99h-3.95v-13.15c0-2.07-.36-3.61-1.09-4.62-.73-1.01-1.93-1.51-3.61-1.51-1.06,0-2.09.3-3.09.9-.99.6-1.81,1.42-2.46,2.46-.42.76-.73,1.65-.95,2.67-.21,1.02-.31,2.37-.31,4.05v9.2h-3.99v-22.13Z"/>
      <path class="cls-3" d="m285.78,73.8c-1.58-.97-2.82-2.34-3.72-4.12-.9-1.78-1.34-3.84-1.34-6.19s.45-4.41,1.34-6.17c.9-1.76,2.13-3.13,3.72-4.09,1.58-.97,3.41-1.45,5.48-1.45,2.38,0,4.42.62,6.11,1.87,1.69,1.25,2.88,2.96,3.55,5.15l-3.74.88c-.45-1.4-1.18-2.48-2.18-3.25-1.01-.77-2.25-1.15-3.74-1.15-2.07,0-3.69.73-4.85,2.18-1.16,1.46-1.74,3.47-1.74,6.05s.58,4.6,1.74,6.07c1.16,1.47,2.78,2.21,4.85,2.21,1.54,0,2.83-.43,3.89-1.28,1.05-.85,1.77-2.06,2.16-3.63l3.74.97c-.62,2.32-1.79,4.14-3.53,5.46-1.74,1.32-3.82,1.97-6.26,1.97-2.07,0-3.9-.48-5.48-1.45Z"/>
      <path class="cls-3" d="m306.55,42.37h3.99v13.78c.84-1.29,1.93-2.33,3.28-3.13,1.34-.8,2.83-1.2,4.45-1.2,2.58,0,4.51.78,5.8,2.35,1.29,1.57,1.93,3.72,1.93,6.47v13.99h-3.95v-13.15c0-2.07-.36-3.61-1.09-4.62-.73-1.01-1.93-1.51-3.61-1.51-1.09,0-2.14.3-3.15.9-1.01.6-1.81,1.42-2.39,2.46-.42.76-.73,1.65-.95,2.67-.21,1.02-.31,2.36-.31,4.01v9.24h-3.99v-32.26Z"/>
      <path class="cls-3" d="m336.85,73.8c-1.61-.97-2.86-2.34-3.76-4.12-.9-1.78-1.34-3.84-1.34-6.19s.46-4.41,1.37-6.17c.91-1.76,2.18-3.13,3.8-4.09,1.62-.97,3.46-1.45,5.5-1.45,1.82,0,3.51.41,5.06,1.24,1.55.83,2.81,2.06,3.76,3.72.95,1.65,1.43,3.7,1.43,6.13,0,.48-.03.99-.08,1.55h-16.88c.17,2.32.84,4.13,2.02,5.42,1.18,1.29,2.77,1.93,4.79,1.93,3.02,0,5.03-1.43,6.01-4.28l3.78,1.01c-.73,2.16-1.95,3.82-3.65,5-1.71,1.18-3.75,1.76-6.13,1.76-2.16,0-4.04-.48-5.65-1.45Zm11.87-12.62c-.25-1.93-.91-3.42-1.97-4.45-1.06-1.04-2.52-1.55-4.37-1.55s-3.24.52-4.35,1.55c-1.11,1.04-1.84,2.52-2.21,4.45h12.89Z"/>
      <path class="cls-3" d="m358.54,52.49h3.78v4.49c.64-1.34,1.61-2.48,2.9-3.42,1.29-.94,2.77-1.41,4.45-1.41.9,0,1.6.07,2.1.21v3.78c-.59-.14-1.33-.21-2.23-.21-1.48,0-2.77.36-3.86,1.07-1.09.71-1.9,1.72-2.44,3-.48,1.2-.71,3.07-.71,5.59v9.03h-3.99v-22.13Z"/>
    </g>
    <path class="cls-16" d="m2067.6,84.43v-5.01h42.13v5.01h-42.13Zm21.07-10.03l-18.43-22.56h10.53v-17.55h15.8v17.55h10.53l-18.43,22.56Z"/>
    <path class="cls-9" d="m2225.23,88.67l-1.14-9.15c-.62-.24-1.2-.52-1.75-.86s-1.08-.69-1.61-1.07l-8.51,3.58-7.86-13.59,7.36-5.58c-.05-.33-.07-.66-.07-.97v-1.93c0-.31.02-.63.07-.97l-7.36-5.58,7.86-13.58,8.51,3.57c.52-.38,1.07-.74,1.64-1.07s1.14-.62,1.72-.86l1.14-9.15h15.73l1.14,9.15c.62.24,1.2.52,1.75.86s1.08.69,1.61,1.07l8.51-3.57,7.86,13.58-7.36,5.58c.05.33.07.66.07.97v1.93c0,.31-.05.63-.14.97l7.36,5.58-7.87,13.59-8.44-3.58c-.52.38-1.07.74-1.64,1.07s-1.14.62-1.72.86l-1.14,9.15h-15.73Zm8.01-18.59c2.76,0,5.12-.98,7.08-2.93s2.93-4.31,2.93-7.08-.98-5.12-2.93-7.08c-1.95-1.95-4.31-2.93-7.08-2.93s-5.18.98-7.11,2.93c-1.93,1.95-2.9,4.31-2.9,7.08s.97,5.12,2.9,7.08,4.3,2.93,7.11,2.93Z"/>
  </g>
  <g>
    <rect class="cls-7" x="1635.47" y="153.6" width="665.6" height="888" rx="84.53" ry="84.53"/>
    <g>
      <rect class="cls-27" x="1673.67" y="887.73" width="593.87" height="119.87" rx="59.93" ry="59.93"/>
      <g>
        <path class="cls-6" d="m1900.5,954.86c.72-2.64,1.08-6.12,1.08-10.44v-9.68h12.72l-.08-.24c-.13-.48-.25-.89-.36-1.22-.11-.33-.19-.61-.24-.82l-.28-.84,4.24-.68c.24.59.57,1.6,1,3.04.11.4.17.65.2.76h11.44v12.24h-24.32c-.08,3.65-.48,6.8-1.2,9.44-.83,2.91-2.27,5.95-4.32,9.12l-3.92-2.36c1.95-2.88,3.29-5.65,4.04-8.32Zm25.48-11.76v-4.52h-20.04v4.52h20.04Zm3.48,7.48v15.16h-23.28v-15.16h23.28Zm-4.24,11.32v-7.4h-14.84v7.4h14.84Z"/>
        <path class="cls-6" d="m1968.18,950.9c-.05,2.19-.2,5.4-.44,9.64-.11,1.28-.28,2.27-.52,2.98-.24.71-.65,1.26-1.24,1.66-.59.4-1.44.67-2.56.8-1.52.21-3.13.31-4.84.28l-.84-4.56c1.09.08,1.96.12,2.6.12.96,0,1.67-.06,2.12-.18.45-.12.79-.39,1.02-.82.23-.43.38-1.12.46-2.08l.4-7.6c.08-2.13.12-4.52.12-7.16v-1.8h-4.88c-.16,3.97-.33,7.06-.52,9.26-.19,2.2-.49,4.17-.92,5.9-.45,1.84-1.07,3.59-1.84,5.24-.77,1.65-1.79,3.36-3.04,5.12l-3.6-2.52c.96-1.28,1.75-2.44,2.36-3.48l-2.56,1.08-.32-1.04c-1.95.29-4.25.59-6.92.88-2.67.29-4.71.47-6.12.52l-.72-4.16c.56-.16,1.09-.71,1.6-1.64.51-.99,1.21-2.72,2.12-5.2.61-1.71,1.13-3.24,1.56-4.6h-4.88v-4.12h16.56v4.12h-7.32c-.37,1.25-.96,2.95-1.76,5.08-.96,2.48-1.81,4.48-2.56,6,1.97-.13,4.32-.43,7.04-.88l-.12-.36c-.85-2.35-1.64-4.21-2.36-5.6l3.68-1.48c.69,1.31,1.49,3.11,2.4,5.4.69,1.68,1.21,3.12,1.56,4.32.64-1.39,1.12-2.76,1.44-4.12.4-1.47.69-3.23.86-5.28.17-2.05.31-4.87.42-8.44h-4.04v-4.16h4.16l.04-2.96.08-3.64h3.96l-.16,6.6h8.72c0,4.4-.07,8.69-.2,12.88Zm-31-17.12h13.84v4h-13.84v-4Z"/>
        <path class="cls-6" d="m1974.46,940.18c.53.32,1.56,1.09,3.08,2.32,1.47,1.2,2.52,2.12,3.16,2.76l-2.52,3.36c-.51-.53-1.59-1.49-3.24-2.88-1.47-1.17-2.44-1.92-2.92-2.24l2.44-3.32Zm.04,18.24c.93-3.01,1.59-5.55,1.96-7.6l4,1.04c-.21,1.25-.77,3.44-1.68,6.56-.96,3.23-1.91,5.95-2.84,8.16l-3.92-1.4c.75-1.65,1.57-3.91,2.48-6.76Zm4.12-24.4c1.33,1.09,2.25,1.88,2.76,2.36l-.2.28h4.56c-.24-1.47-.59-3.12-1.04-4.96l3.88-.68c.27,1.01.64,2.89,1.12,5.64h3.64v2.92c1.57-2.85,2.77-5.71,3.6-8.56l3.72,1.04c-.48,1.36-.89,2.48-1.24,3.36h7.64v4h-9.44c-.37.77-.84,1.65-1.4,2.64h9.68v3.84c-1.25,1.44-2.56,2.76-3.92,3.96v1.32h5.24v4.08h-5.24v7.04c0,1.44-.2,2.46-.6,3.06-.4.6-1.23.99-2.48,1.18-.24,0-.76.03-1.56.08-.8.05-1.55.07-2.24.04l-.8-4.28c1.36.08,2.15.12,2.36.12.53,0,.91-.03,1.12-.1.21-.07.35-.21.4-.42.05-.21.08-.59.08-1.12v-5.6h-4.76v-4.08h4.76v-2.28c1.39-1.15,2.41-2.15,3.08-3h-6.04v-2.36l-.96,1.4-2.96-2.12c.43-.61.91-1.39,1.44-2.32h-6.16v4.16h6.24c-.11,5.39-.28,10.75-.52,16.08-.08,1.31-.21,2.29-.4,2.96-.19.67-.51,1.17-.98,1.5-.47.33-1.18.57-2.14.7-1.07.16-2.12.23-3.16.2l-.76-4.24c.88.08,1.64.12,2.28.12.45,0,.77-.05.96-.16.19-.11.32-.35.4-.72.08-.37.15-1.05.2-2.04.27-4.27.41-7.8.44-10.6h-2.6c-.08,3.73-.45,6.92-1.12,9.56-.4,1.63-.94,3.15-1.62,4.58-.68,1.43-1.53,2.85-2.54,4.26l-3.44-2c.99-1.41,1.8-2.79,2.44-4.14.64-1.35,1.16-2.77,1.56-4.26.37-1.41.63-2.95.78-4.62.15-1.67.22-3.65.22-5.94v-5.4h-2v-3.48l-2,2.6c-.45-.51-1.32-1.29-2.6-2.36-.96-.85-1.95-1.63-2.96-2.32l2.36-3.12c.77.51,1.75,1.24,2.92,2.2Z"/>
        <path class="cls-6" d="m2013.08,957.4c1.27-1.93,2.38-3.93,3.34-5.98l-.08-.16c-2.08-3.55-3.87-6.32-5.36-8.32l3.04-2.32c1.25,1.52,2.69,3.56,4.32,6.12.93-2.64,1.61-5.28,2.04-7.92h-9.24v-4.24h13.48v4.24c-.8,4.43-1.97,8.59-3.52,12.48,1.68,2.83,2.92,5.13,3.72,6.92l-3.6,2.28c-.69-1.57-1.44-3.11-2.24-4.6-1.84,3.52-4.07,6.8-6.68,9.84l-3.28-3c1.44-1.63,2.79-3.41,4.06-5.34Zm17.5-2.1c-.21-.75-.36-1.31-.44-1.68-.53-2.37-.97-5.31-1.32-8.8l-4.08.52-.48-4.12,4.16-.52v-.24c-.27-2.93-.44-6-.52-9.2h4.32c0,2.21.13,5.19.4,8.92l5.88-.72-1.92-2.36c-.91-1.07-1.88-2.12-2.92-3.16l2.68-2.4c1.09.93,2.08,1.91,2.96,2.92.85.93,1.72,1.95,2.6,3.04l-2,1.8,4.4-.56.4,4.08-11.76,1.48c.32,2.99.69,5.51,1.12,7.56,2.24-2.45,4.11-5.07,5.6-7.84l3.32,2.2c-2.21,3.97-4.76,7.41-7.64,10.32.43,1.25.99,2.47,1.68,3.64.43.72.81,1.22,1.14,1.5.33.28.66.42.98.42s.57-.17.76-.52.44-1.04.76-2.08l.84-3.44,3.76,1.84-1.36,4.24c-.56,1.57-1.22,2.74-1.98,3.5s-1.66,1.14-2.7,1.14c-1.17,0-2.22-.34-3.14-1.02-.92-.68-1.85-1.86-2.78-3.54-.51-.83-.95-1.72-1.32-2.68-2.11,1.73-4.69,3.45-7.76,5.16l-2.2-3.52c3.17-1.73,6.03-3.69,8.56-5.88Z"/>
      </g>
    </g>
    <g>
      <g>
        <g>
          <path class="cls-3" d="m1896.14,533.63h6.96l7.11,22.68,7.21-22.68h6.93v26.88h-4.1v-22.92l-7.24,22.92h-5.5l-7.28-22.89v22.89h-4.1v-26.88Z"/>
          <path class="cls-3" d="m1933.84,559.83c-1.38-.8-2.45-1.95-3.22-3.43-.77-1.48-1.15-3.2-1.15-5.16s.38-3.68,1.15-5.15c.77-1.47,1.84-2.61,3.22-3.41,1.38-.81,2.94-1.21,4.69-1.21s3.38.4,4.76,1.21c1.38.8,2.44,1.94,3.2,3.41.76,1.47,1.14,3.19,1.14,5.15s-.38,3.68-1.14,5.16c-.76,1.48-1.83,2.62-3.2,3.43-1.38.81-2.96,1.21-4.76,1.21s-3.31-.4-4.69-1.21Zm.96-3.87c.9,1.14,2.14,1.71,3.73,1.71s2.87-.57,3.78-1.71c.91-1.14,1.36-2.72,1.36-4.72s-.45-3.55-1.36-4.69c-.91-1.14-2.17-1.71-3.78-1.71s-2.83.57-3.73,1.71c-.9,1.14-1.35,2.71-1.35,4.69s.45,3.58,1.35,4.72Z"/>
          <path class="cls-3" d="m1950.5,542.07h4.27l4.72,14.94,4.79-14.94h4.24l-6.3,18.44h-5.67l-6.05-18.44Z"/>
          <path class="cls-3" d="m1990.54,537.34h-8.68v23.17h-4.23v-23.17h-8.68v-3.71h21.59v3.71Z"/>
          <path class="cls-3" d="m1994.61,559.83c-1.37-.8-2.43-1.94-3.19-3.41s-1.14-3.2-1.14-5.18.39-3.68,1.17-5.15,1.86-2.61,3.22-3.41c1.37-.81,2.92-1.21,4.67-1.21,1.56,0,3.02.34,4.36,1.03s2.42,1.73,3.22,3.11c.8,1.39,1.21,3.1,1.21,5.13,0,.51-.04,1.03-.11,1.54h-13.75c.12,1.73.63,3.07,1.54,4.02.91.96,2.1,1.44,3.57,1.44,2.31,0,3.85-1.11,4.62-3.33l3.75.95c-.63,1.82-1.66,3.22-3.1,4.2-1.44.98-3.19,1.47-5.27,1.47-1.82,0-3.41-.4-4.78-1.21Zm9.54-10.59c-.21-1.42-.72-2.53-1.54-3.33-.82-.79-1.91-1.19-3.29-1.19s-2.45.4-3.29,1.19c-.84.79-1.39,1.9-1.65,3.33h9.76Z"/>
          <path class="cls-3" d="m2012.8,542.07h3.82v3.67c.56-1.14,1.37-2.09,2.42-2.85,1.05-.76,2.28-1.14,3.67-1.14.77,0,1.38.07,1.82.21v3.71c-.56-.14-1.24-.21-2.03-.21-1.19,0-2.22.27-3.1.8-.88.54-1.53,1.28-1.98,2.24-.42,1-.63,2.54-.63,4.62v7.38h-3.99v-18.44Z"/>
          <path class="cls-3" d="m2028.76,567.62v-3.29c.82.26,1.66.38,2.52.38.91,0,1.6-.26,2.07-.79.47-.53.84-1.37,1.12-2.54l-6.86-19.32h4.27l4.76,14.17,4.59-14.17h4.23l-7.38,20.65c-.65,1.87-1.48,3.2-2.48,4.01-1,.8-2.42,1.21-4.24,1.21-.77,0-1.63-.1-2.59-.31Z"/>
        </g>
        <g>
          <path class="cls-3" d="m1928.24,594.85c.19-.37.44-.93.78-1.67h-9.64v-.12c-.43.91-.96,1.92-1.58,3.04v12.99c.89-.95,1.51-1.84,1.86-2.67.17-.45.28-.96.34-1.5s.09-1.24.09-2.06v-3.57h8v4.8c.52-.41,1.04-.89,1.58-1.43l.96,2.54c-1.18,1.1-2.56,2.26-4.15,3.5l-1.74-1.89c.39-.41.59-.85.59-1.3v-3.35h-2.45v1.3c0,1.63-.18,2.9-.53,3.81-.33.93-1.1,2.15-2.29,3.66l-2.26-1.74v1.64h-2.82v-10.29c-.25.37-.59.85-1.02,1.43l-2.23-1.83c1.03-1.36,2.1-2.97,3.19-4.8.85-1.41,1.62-2.89,2.33-4.46l2.14,1.08v-5.86c-.64,1.14-1.35,2.25-2.14,3.35-.74,1.12-1.71,2.39-2.88,3.81l-2.29-1.98c.79-.91,1.77-2.18,2.94-3.81.91-1.38,1.67-2.64,2.29-3.75l2.57,1.49-.43.78h2.48v4.53h1.24v-6.82h2.45v6.82h1.24v-4.53h2.54v6.32c.39-.95.74-1.91,1.05-2.88.64-2.09,1.12-4.01,1.43-5.77l2.79.43c-.33,1.65-.65,3.1-.96,4.34h5.55v2.91h-1.12c-.23,2.52-.54,4.73-.95,6.62s-.95,3.59-1.63,5.1c1.05,2.09,2.53,4.07,4.43,5.95l-2.26,2.11c-1.59-1.82-2.85-3.52-3.78-5.12-1.05,1.63-2.48,3.43-4.28,5.39l-2.29-2.05c2.25-2.15,3.94-4.26,5.05-6.32-.77-1.84-1.35-4.06-1.77-6.67l-.31.62-1.3-.71v1.33h-10.04v-2.76h9.24Zm5.77,4.53c.7-2.27,1.18-4.95,1.43-8.03h-2.63l-.19.46c.25,3,.71,5.52,1.39,7.56Z"/>
          <path class="cls-3" d="m1951.67,591.1v4.62h3.5v3.01h-3.5v3.44c1.84-.35,3.23-.64,4.19-.87l.03,3.22c-.62.14-1.74.37-3.35.68-.23.02-.52.07-.87.16v5.61h-2.98v-5.12c-2.25.33-4.09.55-5.52.65l-.31-3.19c1.03-.06,2.98-.28,5.83-.65v-3.94h-5.18v-3.04c.68-1.32,1.43-3.16,2.23-5.52l.06-.22h-2.45v-3.1h3.38c.25-.95.51-2.06.77-3.32l3.04.4c-.23,1.1-.46,2.07-.71,2.91h5.61v3.1h-6.54l-.16.46c-.81,2.38-1.49,4.14-2.04,5.3h2.14v-4.62h2.82Zm6.14,11.56c1.2-2.15,1.83-4.72,1.89-7.72v-3.13h3.1l-.06,3.16c0,.31-.02.77-.06,1.39.29,2.5,1.06,4.75,2.31,6.76,1.25,2,3,3.79,5.25,5.36l-2.17,2.85c-3.18-2.54-5.44-5.46-6.76-8.74-.27.66-.6,1.33-.99,2.01-.66,1.2-1.5,2.35-2.51,3.44-1.01,1.1-2.24,2.2-3.69,3.32l-2.17-2.6c2.73-1.92,4.68-3.96,5.86-6.11Zm.34-19.25l3.01.71c-.37,1.3-.72,2.43-1.05,3.38h9.42v3.01c-.99,2.5-1.9,4.44-2.73,5.83l-2.64-1.15c.79-1.28,1.54-2.82,2.26-4.62h-7.44c-.79,1.9-1.64,3.67-2.57,5.3l-2.7-1.52c1.88-3.1,3.36-6.75,4.43-10.94Z"/>
          <path class="cls-3" d="m1977.62,603.97c.74-1.47,1.12-3.42,1.12-5.86v-8.99h2.57v9.76c0,.99-.07,2.07-.22,3.22.43.39,1.22,1.18,2.36,2.36,1.24,1.26,2.2,2.34,2.88,3.22l-2.17,2.05c-.66-.91-1.56-1.96-2.7-3.16-.27-.31-.68-.78-1.24-1.4l-.28.56c-.91,1.72-2.52,3.53-4.84,5.46l-1.98-2.48c2.27-1.61,3.77-3.19,4.5-4.74Zm-2.82-19.25h10.39v17.95h-2.6v-15.07h-5.21v15.16h-2.57v-18.04Zm12.49,9.95v-10.82h2.98v6.6c.99-.6,2.15-1.43,3.47-2.48,1.3-1.03,2.47-2.09,3.5-3.16l2.11,2.42c-.99.97-2.21,2.01-3.66,3.13-1.71,1.32-3.11,2.33-4.18,3.01l-1.24-1.92v3.22h9.67v2.95h-5.46c.52,2.27,1.21,4.12,2.08,5.55,1.03,1.78,2.52,3.4,4.46,4.87l-2.29,2.42c-2-1.69-3.6-3.64-4.77-5.83-.97-1.9-1.76-4.24-2.36-7.01h-1.33v9.21c.35-.17.91-.45,1.67-.87.76-.41,1.35-.75,1.77-1.02l.37,3.32c-2.03,1.12-4.22,2.12-6.57,3.01l-1.05-2.85c.29-.14.5-.34.64-.59s.2-.49.2-.71v-9.49h-1.55v-2.95h1.55Z"/>
          <path class="cls-3" d="m2004.34,595.07h26.51v2.91h-18.13l-.43,2.23h14.85c-.14,2.98-.35,5.39-.62,7.25-.14.83-.4,1.47-.78,1.94-.37.47-.89.81-1.57,1.04-.67.23-1.59.38-2.74.46-1.08.06-2.62.09-4.65.09h-1.27l-.65-3.44c1.16.08,2.63.12,4.43.12l1.21-.03c.89-.02,1.49-.12,1.8-.31.31-.19.5-.52.56-.99.17-.89.3-1.96.4-3.22h-15.28l1.09-5.15h-4.71v-2.91Zm23.06-10.45v8.65h-19.72v-8.65h19.72Zm-3.44,5.86v-3.01h-12.83v3.01h12.83Z"/>
        </g>
      </g>
      <g>
        <rect class="cls-12" x="1886.22" y="390.69" width="169.41" height="106.21"/>
        <g>
          <rect class="cls-15" x="1886.18" y="348.34" width="169.32" height="42.33"/>
          <rect class="cls-26" x="1908.05" y="368.22" width="127.06" height="22.48"/>
          <rect class="cls-4" x="1928.58" y="348.34" width="84.71" height="19.87"/>
          <rect class="cls-19" x="1949.75" y="348.34" width="42.35" height="19.87"/>
        </g>
        <path class="cls-15" d="m2071.99,385.48h-202.32v-24.43h202.32v24.43Zm-24.56-24.43h-153.38v24.43h153.38v-24.43Z"/>
        <rect class="cls-20" x="1894.24" y="361.05" width="153.38" height="24.43"/>
        <g>
          <g>
            <rect class="cls-11" x="1907.42" y="327.38" width="21.15" height="20.96"/>
            <rect class="cls-2" x="1928.58" y="327.38" width="21.15" height="20.96"/>
          </g>
          <g>
            <rect class="cls-2" x="1992.11" y="327.38" width="21.15" height="20.96"/>
            <rect class="cls-11" x="2013.28" y="327.38" width="21.15" height="20.96"/>
          </g>
          <path class="cls-14" d="m2055.53,348.34h-169.21v-20.96h169.21v20.96h0Zm-105.8-20.96h-42.31v20.96h42.31v-20.96h0Zm84.71,0h-42.31v20.96h42.31v-20.96Z"/>
        </g>
        <g>
          <rect class="cls-13" x="1991.96" y="432.81" width="63.55" height="42.09"/>
          <rect class="cls-5" x="1991.96" y="390.7" width="63.55" height="42.11"/>
        </g>
        <g>
          <rect class="cls-13" x="1886.22" y="432.82" width="63.55" height="42.09"/>
          <rect class="cls-5" x="1886.22" y="390.71" width="63.55" height="42.11"/>
        </g>
        <g>
          <rect class="cls-21" x="1894.43" y="410.08" width="49.13" height="27.4"/>
          <rect class="cls-23" x="1894.43" y="437.48" width="49.13" height="27.4"/>
        </g>
        <g>
          <rect class="cls-21" x="1998.12" y="410.08" width="49.13" height="27.4"/>
          <rect class="cls-23" x="1998.12" y="437.48" width="49.13" height="27.4"/>
        </g>
        <g>
          <rect class="cls-5" x="1869.67" y="410.08" width="24.76" height="27.4"/>
          <rect class="cls-13" x="1869.67" y="437.48" width="24.76" height="27.4"/>
        </g>
        <g>
          <rect class="cls-5" x="2047.25" y="410.08" width="24.76" height="27.4"/>
          <rect class="cls-13" x="2047.25" y="437.48" width="24.76" height="27.4"/>
        </g>
      </g>
    </g>
    <g>
      <g>
        <g>
          <path class="cls-3" d="m1803.68,754.21c-1.45,1.36-3.24,2.14-5.39,2.33v-3.19c.74-.1,1.5-.35,2.26-.74s1.44-.92,2.03-1.6c.59-.67,1.01-1.44,1.26-2.31h3.44v23.81h-3.6v-18.29Z"/>
          <path class="cls-3" d="m1814.1,772.19c-.45-.43-.68-1-.68-1.71s.23-1.26.68-1.67c.46-.41,1.03-.62,1.74-.62s1.28.21,1.74.62c.45.41.68.97.68,1.67s-.23,1.27-.68,1.71c-.46.43-1.03.65-1.74.65s-1.28-.22-1.74-.65Z"/>
          <path class="cls-3" d="m1822.19,770.95c0-1.72.28-3.16.85-4.33.57-1.17,1.35-2.15,2.34-2.96.99-.81,2.29-1.61,3.91-2.42,1.47-.74,2.58-1.37,3.33-1.88.75-.51,1.34-1.09,1.77-1.75.42-.66.63-1.49.63-2.48,0-1.2-.37-2.14-1.12-2.84-.74-.69-1.81-1.04-3.19-1.04-2.75,0-4.36,1.48-4.84,4.43l-3.6-.62c.17-1.22.59-2.35,1.27-3.39s1.63-1.89,2.85-2.53c1.22-.64,2.67-.96,4.34-.96s3.17.31,4.36.93c1.19.62,2.08,1.46,2.68,2.53.6,1.06.9,2.25.9,3.55,0,1.51-.33,2.79-.99,3.86s-1.49,1.94-2.5,2.63c-1,.69-2.37,1.51-4.11,2.46l-.09.03c-1.16.62-2.06,1.15-2.71,1.58-.65.43-1.18.93-1.58,1.49s-.67,1.23-.79,2.01h13.02v3.22h-16.74v-1.55Z"/>
          <path class="cls-3" d="m1848.11,754.21c-1.45,1.36-3.24,2.14-5.39,2.33v-3.19c.74-.1,1.5-.35,2.26-.74s1.44-.92,2.03-1.6c.59-.67,1.01-1.44,1.26-2.31h3.44v23.81h-3.6v-18.29Z"/>
          <path class="cls-3" d="m1858.52,772.19c-.45-.43-.68-1-.68-1.71s.23-1.26.68-1.67c.46-.41,1.03-.62,1.74-.62s1.28.21,1.74.62c.45.41.68.97.68,1.67s-.23,1.27-.68,1.71c-.46.43-1.03.65-1.74.65s-1.28-.22-1.74-.65Z"/>
          <path class="cls-3" d="m1870.27,772.06c-1.3-.6-2.29-1.44-2.96-2.51-.67-1.07-1.01-2.31-1.01-3.72s.39-2.74,1.18-3.81c.79-1.07,1.88-1.88,3.29-2.42-1.1-.5-1.96-1.18-2.59-2.06-.63-.88-.95-1.91-.95-3.08,0-1.24.32-2.33.95-3.27.63-.94,1.53-1.67,2.7-2.19s2.53-.78,4.08-.78,2.93.26,4.09.78c1.16.52,2.06,1.25,2.71,2.19.65.94.98,2.03.98,3.27s-.32,2.21-.96,3.08c-.64.88-1.5,1.57-2.57,2.06,1.4.54,2.5,1.34,3.27,2.42.77,1.08,1.16,2.35,1.16,3.81s-.33,2.65-.99,3.72c-.66,1.08-1.65,1.91-2.96,2.51-1.31.6-2.89.9-4.73.9s-3.38-.3-4.68-.9Zm.98-3.33c.92.75,2.17,1.13,3.74,1.13s2.83-.38,3.72-1.13c.89-.75,1.33-1.78,1.33-3.08s-.45-2.44-1.35-3.22c-.9-.79-2.14-1.18-3.74-1.18s-2.79.39-3.71,1.18-1.38,1.86-1.38,3.22.46,2.33,1.38,3.08Zm.68-11.52c.73.62,1.74.93,3.02.93s2.35-.31,3.08-.93,1.1-1.49,1.1-2.6c0-1.05-.37-1.88-1.1-2.48s-1.76-.9-3.08-.9-2.29.3-3.02.9c-.73.6-1.1,1.43-1.1,2.48,0,1.12.37,1.98,1.1,2.6Z"/>
        </g>
        <g>
          <path class="cls-3" d="m1803.38,799.44c-1.35,1.28-3.04,2-5.05,2.17v-2.99c.7-.1,1.4-.33,2.12-.7.71-.37,1.35-.86,1.9-1.49.55-.63.94-1.35,1.17-2.16h3.22v22.27h-3.36v-17.11Z"/>
          <path class="cls-3" d="m1813.13,816.26c-.43-.41-.64-.94-.64-1.59s.21-1.18.64-1.57c.42-.39.97-.58,1.62-.58s1.2.19,1.62.58c.42.39.64.91.64,1.57s-.21,1.19-.64,1.59c-.43.41-.97.61-1.62.61s-1.2-.2-1.62-.61Z"/>
          <path class="cls-3" d="m1820.69,815.1c0-1.6.27-2.95.8-4.04.53-1.09,1.26-2.02,2.19-2.77s2.15-1.51,3.65-2.26c1.37-.7,2.41-1.28,3.12-1.75.71-.47,1.26-1.02,1.65-1.64.4-.62.59-1.39.59-2.32,0-1.12-.35-2-1.04-2.65-.7-.65-1.69-.97-2.99-.97-2.57,0-4.08,1.38-4.52,4.15l-3.36-.58c.15-1.14.55-2.2,1.19-3.18.64-.98,1.53-1.76,2.67-2.36,1.14-.6,2.49-.9,4.06-.9s2.96.29,4.07.87c1.11.58,1.95,1.37,2.51,2.36s.84,2.1.84,3.32c0,1.41-.31,2.62-.93,3.61-.62,1-1.4,1.82-2.33,2.46-.94.65-2.22,1.42-3.84,2.31l-.09.03c-1.08.58-1.93,1.07-2.54,1.48-.61.41-1.1.87-1.48,1.39-.38.52-.62,1.15-.74,1.88h12.18v3.02h-15.66v-1.45Z"/>
          <path class="cls-3" d="m1844.94,799.44c-1.35,1.28-3.04,2-5.04,2.17v-2.99c.7-.1,1.4-.33,2.12-.7.71-.37,1.35-.86,1.9-1.49.55-.63.94-1.35,1.17-2.16h3.22v22.27h-3.37v-17.11Z"/>
          <path class="cls-3" d="m1854.68,816.26c-.43-.41-.64-.94-.64-1.59s.21-1.18.64-1.57c.42-.39.97-.58,1.62-.58s1.2.19,1.62.58c.42.39.64.91.64,1.57s-.21,1.19-.64,1.59c-.43.41-.97.61-1.62.61s-1.2-.2-1.62-.61Z"/>
          <path class="cls-3" d="m1865.67,816.14c-1.22-.56-2.14-1.34-2.77-2.35-.63-1-.94-2.17-.94-3.48s.37-2.56,1.1-3.57c.73-1,1.76-1.76,3.07-2.26-1.02-.46-1.83-1.11-2.42-1.93-.59-.82-.88-1.78-.88-2.89,0-1.16.29-2.18.88-3.06.59-.88,1.43-1.56,2.52-2.04s2.36-.73,3.81-.73,2.74.24,3.83.73,1.93,1.17,2.54,2.04c.61.88.91,1.9.91,3.06s-.3,2.06-.9,2.89c-.6.82-1.4,1.46-2.41,1.93,1.31.5,2.33,1.26,3.06,2.26.73,1.01,1.09,2.19,1.09,3.57s-.31,2.47-.93,3.48c-.62,1.01-1.54,1.79-2.77,2.35-1.23.56-2.7.84-4.42.84s-3.16-.28-4.38-.84Zm.91-3.12c.86.71,2.03,1.06,3.5,1.06s2.65-.35,3.48-1.06c.83-.71,1.25-1.67,1.25-2.89s-.42-2.28-1.26-3.02c-.84-.73-2.01-1.1-3.49-1.1s-2.61.37-3.47,1.1c-.86.74-1.29,1.74-1.29,3.02s.43,2.18,1.29,2.89Zm.64-10.77c.69.58,1.63.87,2.83.87s2.2-.29,2.88-.87c.69-.58,1.03-1.39,1.03-2.44,0-.99-.34-1.76-1.03-2.32-.69-.56-1.65-.84-2.88-.84s-2.14.28-2.83.84c-.69.56-1.03,1.33-1.03,2.32,0,1.04.34,1.86,1.03,2.44Z"/>
        </g>
      </g>
      <path class="cls-9" d="m2199.71,811.65l-1.14-9.15c-.62-.24-1.2-.52-1.75-.86s-1.08-.69-1.61-1.07l-8.51,3.57-7.86-13.58,7.36-5.58c-.05-.33-.07-.66-.07-.97v-1.93c0-.31.02-.63.07-.97l-7.36-5.58,7.86-13.58,8.51,3.57c.52-.38,1.07-.74,1.64-1.07s1.14-.62,1.72-.86l1.14-9.15h15.73l1.14,9.15c.62.24,1.2.52,1.75.86s1.08.69,1.61,1.07l8.51-3.57,7.86,13.58-7.36,5.58c.05.33.07.66.07.97v1.93c0,.31-.05.63-.14.97l7.36,5.58-7.86,13.58-8.44-3.57c-.52.38-1.07.74-1.64,1.07s-1.14.62-1.72.86l-1.14,9.15h-15.73Zm8.01-18.59c2.76,0,5.12-.98,7.08-2.93s2.93-4.31,2.93-7.08-.98-5.12-2.93-7.08-4.31-2.93-7.08-2.93-5.18.98-7.11,2.93c-1.93,1.95-2.9,4.31-2.9,7.08s.97,5.12,2.9,7.08,4.3,2.93,7.11,2.93Z"/>
      <g class="cls-29">
        <g class="cls-28">
          <polygon class="cls-10" points="1728 827.72 1690.42 806.03 1690.42 762.65 1728 784.34 1728 827.72"/>
          <polygon class="cls-17" points="1728 827.72 1765.58 806.03 1765.58 762.65 1728 784.34 1728 827.72"/>
          <polygon class="cls-25" points="1690.42 762.65 1728 784.34 1765.58 762.65 1728 740.91 1690.42 762.65"/>
          <polygon class="cls-22" points="1728 827.69 1690.42 806 1690.42 775.64 1728 797.32 1728 827.69"/>
          <polygon class="cls-24" points="1727.98 827.69 1765.56 806 1765.56 775.64 1727.98 797.32 1727.98 827.69"/>
        </g>
      </g>
    </g>
  </g>
</svg>